# xmcd
#
# Track frame offsets:
#	150
#	36745
#	78205
#	105556
#	140990
#	169184
#	202715
#	248293
#
# Disc length: 3611
#
# Revision: 1
# Processed by: cddbd v1.5.1PL0 Copyright (c) Steve Scherf et al.
# Submitted via: CDex 1.51
# Normalized: r0:TRMNUM
#
DISCID=630e1908
DTITLE=Steve Gray - NDR Bigband - Requiem For Choir And Big Band
DYEAR=2004
DGENRE=Jazz
TTITLE0=(Introitus) Requiem and Kyie
TTITLE1=Sequence I
TTITLE2=Sequence II
TTITLE3=Sequence III
TTITLE4=Sequence IV
TTITLE5=Domine Jesu Christe
TTITLE6=Sanctus
TTITLE7=Agnus Dei
EXTD=YEAR: 2004
EXTT0=
EXTT1=
EXTT2=
EXTT3=
EXTT4=
EXTT5=
EXTT6=
EXTT7=
PLAYORDER=
